<svg id="visual" viewBox="0 0 900 600" width="900" height="600" xmlns="http://www.w3.org/2000/svg" xmlns:xlink="http://www.w3.org/1999/xlink" version="1.1"><path d="M0 67L13.7 71C27.3 75 54.7 83 82 84C109.3 85 136.7 79 163.8 75C191 71 218 69 245.2 71C272.3 73 299.7 79 327 80C354.3 81 381.7 77 409 76C436.3 75 463.7 77 491 73C518.3 69 545.7 59 573 59C600.3 59 627.7 69 654.8 69C682 69 709 59 736.2 54C763.3 49 790.7 49 818 52C845.3 55 872.7 61 886.3 64L900 67L900 0L886.3 0C872.7 0 845.3 0 818 0C790.7 0 763.3 0 736.2 0C709 0 682 0 654.8 0C627.7 0 600.3 0 573 0C545.7 0 518.3 0 491 0C463.7 0 436.3 0 409 0C381.7 0 354.3 0 327 0C299.7 0 272.3 0 245.2 0C218 0 191 0 163.8 0C136.7 0 109.3 0 82 0C54.7 0 27.3 0 13.7 0L0 0Z" fill="#4f4f4f"></path><path d="M0 187L13.7 189C27.3 191 54.7 195 82 193C109.3 191 136.7 183 163.8 179C191 175 218 175 245.2 169C272.3 163 299.7 151 327 141C354.3 131 381.7 123 409 131C436.3 139 463.7 163 491 161C518.3 159 545.7 131 573 126C600.3 121 627.7 139 654.8 139C682 139 709 121 736.2 124C763.3 127 790.7 151 818 160C845.3 169 872.7 163 886.3 160L900 157L900 65L886.3 62C872.7 59 845.3 53 818 50C790.7 47 763.3 47 736.2 52C709 57 682 67 654.8 67C627.7 67 600.3 57 573 57C545.7 57 518.3 67 491 71C463.7 75 436.3 73 409 74C381.7 75 354.3 79 327 78C299.7 77 272.3 71 245.2 69C218 67 191 69 163.8 73C136.7 77 109.3 83 82 82C54.7 81 27.3 73 13.7 69L0 65Z" fill="#3d3d3d"></path><path d="M0 403L13.7 401C27.3 399 54.7 395 82 388C109.3 381 136.7 371 163.8 366C191 361 218 361 245.2 367C272.3 373 299.7 385 327 376C354.3 367 381.7 337 409 323C436.3 309 463.7 311 491 316C518.3 321 545.7 329 573 329C600.3 329 627.7 321 654.8 310C682 299 709 285 736.2 278C763.3 271 790.7 271 818 269C845.3 267 872.7 263 886.3 261L900 259L900 155L886.3 158C872.7 161 845.3 167 818 158C790.7 149 763.3 125 736.2 122C709 119 682 137 654.8 137C627.7 137 600.3 119 573 124C545.7 129 518.3 157 491 159C463.7 161 436.3 137 409 129C381.7 121 354.3 129 327 139C299.7 149 272.3 161 245.2 167C218 173 191 173 163.8 177C136.7 181 109.3 189 82 191C54.7 193 27.3 189 13.7 187L0 185Z" fill="#2c2c2c"></path><path d="M0 553L13.7 542C27.3 531 54.7 509 82 496C109.3 483 136.7 479 163.8 481C191 483 218 491 245.2 499C272.3 507 299.7 515 327 507C354.3 499 381.7 475 409 465C436.3 455 463.7 459 491 458C518.3 457 545.7 451 573 448C600.3 445 627.7 445 654.8 445C682 445 709 445 736.2 449C763.3 453 790.7 461 818 473C845.3 485 872.7 501 886.3 509L900 517L900 257L886.3 259C872.7 261 845.3 265 818 267C790.7 269 763.3 269 736.2 276C709 283 682 297 654.8 308C627.7 319 600.3 327 573 327C545.7 327 518.3 319 491 314C463.7 309 436.3 307 409 321C381.7 335 354.3 365 327 374C299.7 383 272.3 371 245.2 365C218 359 191 359 163.8 364C136.7 369 109.3 379 82 386C54.7 393 27.3 397 13.7 399L0 401Z" fill="#272727"></path><path d="M0 601L13.7 601C27.3 601 54.7 601 82 601C109.3 601 136.7 601 163.8 601C191 601 218 601 245.2 601C272.3 601 299.7 601 327 601C354.3 601 381.7 601 409 601C436.3 601 463.7 601 491 601C518.3 601 545.7 601 573 601C600.3 601 627.7 601 654.8 601C682 601 709 601 736.2 601C763.3 601 790.7 601 818 601C845.3 601 872.7 601 886.3 601L900 601L900 515L886.3 507C872.7 499 845.3 483 818 471C790.7 459 763.3 451 736.2 447C709 443 682 443 654.8 443C627.7 443 600.3 443 573 446C545.7 449 518.3 455 491 456C463.7 457 436.3 453 409 463C381.7 473 354.3 497 327 505C299.7 513 272.3 505 245.2 497C218 489 191 481 163.8 479C136.7 477 109.3 481 82 494C54.7 507 27.3 529 13.7 540L0 551Z" fill="#222222"></path></svg>