<svg id="visual" viewBox="0 0 900 600" width="900" height="600" xmlns="http://www.w3.org/2000/svg" xmlns:xlink="http://www.w3.org/1999/xlink" version="1.1"><rect x="0" y="0" width="900" height="600" fill="#EFEFEF"></rect><path d="M0 433L21.5 422.7C43 412.3 86 391.7 128.8 376.3C171.7 361 214.3 351 257.2 355.5C300 360 343 379 385.8 394.3C428.7 409.7 471.3 421.3 514.2 413.8C557 406.3 600 379.7 642.8 370.2C685.7 360.7 728.3 368.3 771.2 371.8C814 375.3 857 374.7 878.5 374.3L900 374L900 601L878.5 601C857 601 814 601 771.2 601C728.3 601 685.7 601 642.8 601C600 601 557 601 514.2 601C471.3 601 428.7 601 385.8 601C343 601 300 601 257.2 601C214.3 601 171.7 601 128.8 601C86 601 43 601 21.5 601L0 601Z" fill="#DB5A42" stroke-linecap="round" stroke-linejoin="miter"></path></svg>