<svg id="visual" viewBox="0 0 900 600" width="900" height="600" xmlns="http://www.w3.org/2000/svg" xmlns:xlink="http://www.w3.org/1999/xlink" version="1.1"><path d="M0 167L21.5 165C43 163 86 159 128.8 168.2C171.7 177.3 214.3 199.7 257.2 219.2C300 238.7 343 255.3 385.8 249.3C428.7 243.3 471.3 214.7 514.2 212.2C557 209.7 600 233.3 642.8 247.5C685.7 261.7 728.3 266.3 771.2 277.8C814 289.3 857 307.7 878.5 316.8L900 326L900 0L878.5 0C857 0 814 0 771.2 0C728.3 0 685.7 0 642.8 0C600 0 557 0 514.2 0C471.3 0 428.7 0 385.8 0C343 0 300 0 257.2 0C214.3 0 171.7 0 128.8 0C86 0 43 0 21.5 0L0 0Z" fill="#DB5A42" stroke-linecap="round" stroke-linejoin="miter"></path></svg>