<svg id="visual" viewBox="0 0 900 600" width="900" height="600" xmlns="http://www.w3.org/2000/svg" xmlns:xlink="http://www.w3.org/1999/xlink" version="1.1"><path d="M0 512L21.5 516.8C43 521.7 86 531.3 128.8 536C171.7 540.7 214.3 540.3 257.2 541.5C300 542.7 343 545.3 385.8 549.3C428.7 553.3 471.3 558.7 514.2 560.3C557 562 600 560 642.8 552.3C685.7 544.7 728.3 531.3 771.2 526.3C814 521.3 857 524.7 878.5 526.3L900 528L900 601L878.5 601C857 601 814 601 771.2 601C728.3 601 685.7 601 642.8 601C600 601 557 601 514.2 601C471.3 601 428.7 601 385.8 601C343 601 300 601 257.2 601C214.3 601 171.7 601 128.8 601C86 601 43 601 21.5 601L0 601Z" fill="#DB5A42" stroke-linecap="round" stroke-linejoin="miter"></path></svg>