<svg id="visual" viewBox="0 0 900 600" width="900" height="600" xmlns="http://www.w3.org/2000/svg" xmlns:xlink="http://www.w3.org/1999/xlink" version="1.1"><path d="M0 469L21.5 470C43 471 86 473 128.8 479.7C171.7 486.3 214.3 497.7 257.2 506.8C300 516 343 523 385.8 525.2C428.7 527.3 471.3 524.7 514.2 519.8C557 515 600 508 642.8 508.7C685.7 509.3 728.3 517.7 771.2 515C814 512.3 857 498.7 878.5 491.8L900 485L900 601L878.5 601C857 601 814 601 771.2 601C728.3 601 685.7 601 642.8 601C600 601 557 601 514.2 601C471.3 601 428.7 601 385.8 601C343 601 300 601 257.2 601C214.3 601 171.7 601 128.8 601C86 601 43 601 21.5 601L0 601Z" fill="#DB5A42" stroke-linecap="round" stroke-linejoin="miter"></path></svg>